Coordinates
version=1
nRows=6
nColumns=63
inDegrees=yes

Units are S.I. units (second, meters, Newtons, ...)
If the header above contains a line with 'inDegrees', this indicates whether rotational values are in degrees (yes) or radians (no).

endheader
time	pelvis_tilt	pelvis_list	pelvis_rotation	pelvis_tx	pelvis_ty	pelvis_tz	hip_flexion_r	hip_adduction_r	hip_rotation_r	knee_angle_r	knee_angle_r_beta	ankle_angle_r	subtalar_angle_r	mtp_angle_r	hip_flexion_l	hip_adduction_l	hip_rotation_l	knee_angle_l	knee_angle_l_beta	ankle_angle_l	subtalar_angle_l	mtp_angle_l	L5_S1_Flex_Ext	L5_S1_Lat_Bending	L5_S1_axial_rotation	L4_L5_Flex_Ext	L4_L5_Lat_Bending	L4_L5_axial_rotation	L3_L4_Flex_Ext	L3_L4_Lat_Bending	L3_L4_axial_rotation	L2_L3_Flex_Ext	L2_L3_Lat_Bending	L2_L3_axial_rotation	L1_L2_Flex_Ext	L1_L2_Lat_Bending	L1_L2_axial_rotation	L1_T12_Flex_Ext	L1_T12_Lat_Bending	L1_T12_axial_rotation	Abs_r3	Abs_r2	Abs_r1	Abs_t1	Abs_t2	neck_flexion	neck_bending	neck_rotation	arm_flex_r	arm_add_r	arm_rot_r	elbow_flex_r	pro_sup_r	wrist_flex_r	wrist_dev_r	arm_flex_l	arm_add_l	arm_rot_l	elbow_flex_l	pro_sup_l	wrist_flex_l	wrist_dev_l
0.728814	0.470398	-3.114444	91.941112	0.151743	0.648107	0.818668	5.626412	-2.333735	5.365275	4.350788	0.075936	24.167982	-1.064857	0.000000	4.992290	2.760797	4.418287	1.427240	0.024910	22.109778	-8.255813	0.000000	0.125434	-0.726788	-0.599024	0.232944	-0.966628	-0.636463	0.206076	-1.767112	-0.636463	0.143359	-1.767112	-0.524146	0.116478	-1.482065	-0.486707	0.071673	-1.125794	-0.449268	0.895965	-8.221568	-3.331594	0.000000	0.000000	27.577645	8.124059	-18.102861	29.681265	-6.610729	24.211344	90.868331	91.096961	-6.707996	16.598429	21.464883	-11.880346	81.723513	31.344994	85.792993	-19.513111	-1.775185
0.745763	0.435915	-3.122660	91.785261	0.152928	0.648660	0.817597	5.544956	-2.250283	6.159086	4.195959	0.073233	23.924687	-1.975090	0.000000	4.861438	2.704700	4.304869	1.346304	0.023497	21.766948	-8.489666	0.000000	0.141809	-0.771617	-0.575905	0.263353	-1.026250	-0.611899	0.232978	-1.876109	-0.611899	0.162073	-1.876109	-0.503917	0.131684	-1.573481	-0.467923	0.081030	-1.195234	-0.431929	1.012927	-8.728683	-3.203011	0.000000	0.000000	27.685188	8.292959	-19.932476	29.663667	-6.333214	20.673994	96.572796	90.916756	-7.514354	16.527405	21.602132	-12.532629	83.234022	30.429505	83.044562	-19.463255	-1.041749
0.762712	0.394684	-3.128949	91.782171	0.153897	0.649157	0.816560	5.426332	-2.193721	6.824312	4.019888	0.070160	23.708122	-2.896446	0.000000	4.760828	2.673911	4.266227	1.329638	0.023207	21.427489	-8.693173	0.000000	0.155150	-0.817946	-0.584423	0.288129	-1.087868	-0.620949	0.254896	-1.988754	-0.620949	0.177321	-1.988754	-0.511370	0.144072	-1.667956	-0.474843	0.088653	-1.266998	-0.438317	1.108220	-9.252769	-3.250384	0.000000	0.000000	27.797002	8.450772	-21.716134	29.882967	-5.917201	17.466029	101.828188	89.698074	-8.421533	16.427994	21.437024	-13.319392	83.127513	29.864236	80.336839	-18.741019	-0.309497
0.779661	0.372936	-3.134660	91.910374	0.154609	0.649637	0.815580	5.283748	-2.139537	7.326805	3.831284	0.066869	23.507414	-3.761854	0.000000	4.703870	2.638850	4.131647	1.389596	0.024253	21.156658	-8.647500	0.000000	0.165192	-0.862279	-0.612684	0.306779	-1.146832	-0.650977	0.271395	-2.096546	-0.650977	0.188798	-2.096546	-0.536098	0.153398	-1.758360	-0.497806	0.094391	-1.335671	-0.459513	1.179953	-9.754278	-3.407564	0.000000	0.000000	27.905015	8.559506	-23.464299	30.212945	-5.438561	14.185436	106.698423	88.570229	-9.233664	16.418353	21.128197	-14.090396	82.285298	29.475547	78.092978	-17.569168	0.321800
0.796610	0.367265	-3.119270	92.134569	0.155080	0.650144	0.814677	5.102654	-2.090192	7.686667	3.633036	0.063408	23.326544	-4.540662	0.000000	4.665801	2.600284	3.919866	1.518042	0.026495	20.941703	-8.410132	0.000000	0.169051	-0.904369	-0.664533	0.313945	-1.202811	-0.706066	0.277734	-2.198884	-0.706066	0.193209	-2.198884	-0.581466	0.156981	-1.844190	-0.539933	0.096596	-1.400868	-0.498399	1.207515	-10.230408	-3.695931	0.000000	0.000000	27.999871	8.641795	-25.103211	30.715840	-4.954465	11.007079	111.195770	88.086962	-9.836737	16.287925	20.669697	-14.823281	81.055385	29.188867	76.347631	-16.275530	0.734431
0.813559	0.378191	-3.095597	92.421840	0.155347	0.650665	0.813903	4.917831	-2.043108	7.899671	3.451711	0.060244	23.171589	-5.176153	0.000000	4.654363	2.555809	3.651822	1.694753	0.029579	20.761302	-8.045401	0.000000	0.169357	-0.944083	-0.742540	0.314514	-1.255630	-0.788949	0.278237	-2.295442	-0.788949	0.193558	-2.295442	-0.649723	0.157265	-1.925173	-0.603314	0.096771	-1.462384	-0.556905	1.209703	-10.679650	-4.129786	0.000000	0.000000	28.083413	8.785916	-26.526233	31.467630	-4.534146	8.161290	115.372507	87.999421	-10.391632	15.887901	20.042275	-15.565871	79.413370	29.019904	75.218995	-14.921418	0.876615
